<?xml version="1.0" encoding="utf-8"?>
<svg clip-rule="evenodd" fill-rule="evenodd" stroke-linejoin="round" stroke-miterlimit="1.414" viewBox="0 0 24 24" xmlns="http://www.w3.org/2000/svg" xmlns:xlink="http://www.w3.org/1999/xlink">
  <defs>
    <symbol id="a" preserveAspectRatio="xMinYMin meet" xmlns="http://www.w3.org/2000/svg">
      <path fill="none" stroke-opacity="100%" stroke-width="60" stroke="#00979c" d="M174 30a10.5 10.1 0 0 0 0 280C364 320 344 30 544 30a10.5 10.1 0 0 1 0 280C354 320 374 30 174 30"/>
      <path d="M528 205v-32.8h-32.5v-13.7H528V126h13.9v32.5h32.5v13.7h-32.5V205H528z" text-anchor="middle" fill="#00979c" stroke-width="20" stroke="#00979c" font-family="sans-serif" font-size="167"/>
      <path fill="#00979c" stroke="#00979c" stroke-width="23.6" transform="matrix(1.56 0 0 .64 -366 .528)" d="M321 266v-17.4h53.3V266H321z"/>
    </symbol>
  </defs>
  <path d="M10 4H4c-1.11 0-2 .89-2 2v12c0 1.097.903 2 2 2h16c1.097 0 2-.903 2-2V8a2 2 0 0 0-2-2h-8l-2-2z" fill-rule="nonzero" style="fill: rgb(68, 225, 209);"/>
  <use transform="matrix(0.997, 0, 0, 0.997, 30.387943, 214.298224)" xlink:href="#a"/>
  <path fill="#009688" d="M 19.545 18.949 C 16.624 18.949 14.538 15.257 14.463 15.09 L 14.235 14.676 L 14.463 14.261 C 14.538 14.053 16.624 10.362 19.545 10.362 C 21.708 10.362 23.452 12.269 23.452 14.634 C 23.452 17 21.708 18.949 19.545 18.949 Z M 16.017 14.634 C 16.587 15.463 17.952 17.248 19.508 17.248 C 20.835 17.248 21.897 16.087 21.897 14.634 C 21.897 13.182 20.835 12.021 19.508 12.021 C 17.952 12.021 16.587 13.806 16.017 14.634 Z" style="" transform="matrix(0.999991, 0.004198, -0.004198, 0.999991, 0.06169, -0.078976)"/>
  <path fill="#009688" d="M 10.67 18.917 C 8.508 18.917 6.763 16.968 6.763 14.603 C 6.763 12.237 8.508 10.33 10.67 10.33 C 13.666 10.33 15.677 14.022 15.753 14.188 L 15.98 14.603 L 15.753 15.017 C 15.677 15.183 13.591 18.917 10.67 18.917 Z M 10.67 11.989 C 9.342 11.989 8.279 13.15 8.279 14.603 C 8.279 16.055 9.342 17.216 10.67 17.216 C 12.263 17.216 13.629 15.431 14.198 14.603 C 13.666 13.774 12.3 11.989 10.67 11.989 Z" style="" transform="matrix(0.999991, 0.004198, -0.004198, 0.999991, 0.06149, -0.047609)"/>
  <path fill="#009688" d="M 9.799 14.079 L 12.074 14.079 L 12.074 14.909 L 9.799 14.909 L 9.799 14.079 Z M 18.144 14.079 L 20.419 14.079 L 20.419 14.909 L 18.144 14.909 L 18.144 14.079 Z" style="" transform="matrix(0.999991, 0.004198, -0.004198, 0.999991, 0.060979, -0.0633)"/>
  <path fill="#009688" d="M 18.901 13.266 L 19.659 13.266 L 19.659 15.756 L 18.901 15.756 L 18.901 13.266 Z" style="" transform="matrix(0.999991, 0.004198, -0.004198, 0.999991, 0.061087, -0.08081)"/>
</svg>