<?xml version="1.0" encoding="utf-8"?>
<svg viewBox="0 0 24 24" clip-rule="evenodd" fill-rule="evenodd" stroke-linejoin="round" stroke-miterlimit="1.414" xmlns="http://www.w3.org/2000/svg">
  <path d="M 18.971 19.993 L 3.971 19.993 C 2.866 19.993 1.971 19.097 1.971 17.993 L 1.971 5.993 C 1.971 4.883 2.861 3.993 3.971 3.993 L 9.971 3.993 L 11.971 5.993 L 18.971 5.993 C 20.068 5.993 20.971 6.896 20.971 7.993 L 3.971 7.993 L 3.971 17.993 L 6.111 9.993 L 23.181 9.993 L 20.901 18.493 C 20.671 19.363 19.891 19.993 18.971 19.993 Z" style="fill: rgb(68, 225, 209);"/>
  <path fill="#009688" d="M 19.545 18.949 C 16.624 18.949 14.538 15.257 14.463 15.09 L 14.235 14.676 L 14.463 14.261 C 14.538 14.053 16.624 10.362 19.545 10.362 C 21.708 10.362 23.452 12.269 23.452 14.634 C 23.452 17 21.708 18.949 19.545 18.949 Z M 16.017 14.634 C 16.587 15.463 17.952 17.248 19.508 17.248 C 20.835 17.248 21.897 16.087 21.897 14.634 C 21.897 13.182 20.835 12.021 19.508 12.021 C 17.952 12.021 16.587 13.806 16.017 14.634 Z" style="" transform="matrix(0.999991, 0.004198, -0.004198, 0.999991, 0.06169, -0.078976)"/>
  <path fill="#009688" d="M 10.67 18.917 C 8.508 18.917 6.763 16.968 6.763 14.603 C 6.763 12.237 8.508 10.33 10.67 10.33 C 13.666 10.33 15.677 14.022 15.753 14.188 L 15.98 14.603 L 15.753 15.017 C 15.677 15.183 13.591 18.917 10.67 18.917 Z M 10.67 11.989 C 9.342 11.989 8.279 13.15 8.279 14.603 C 8.279 16.055 9.342 17.216 10.67 17.216 C 12.263 17.216 13.629 15.431 14.198 14.603 C 13.666 13.774 12.3 11.989 10.67 11.989 Z" style="" transform="matrix(0.999991, 0.004198, -0.004198, 0.999991, 0.06149, -0.047609)"/>
  <path fill="#009688" d="M 9.799 14.079 L 12.074 14.079 L 12.074 14.909 L 9.799 14.909 L 9.799 14.079 Z M 18.144 14.079 L 20.419 14.079 L 20.419 14.909 L 18.144 14.909 L 18.144 14.079 Z" style="" transform="matrix(0.999991, 0.004198, -0.004198, 0.999991, 0.060979, -0.0633)"/>
  <path fill="#009688" d="M 18.901 13.266 L 19.659 13.266 L 19.659 15.756 L 18.901 15.756 L 18.901 13.266 Z" style="" transform="matrix(0.999991, 0.004198, -0.004198, 0.999991, 0.061087, -0.08081)"/>
</svg>