<?xml version="1.0" encoding="utf-8"?>
<svg viewBox="0 0 720 720" xmlns="http://www.w3.org/2000/svg">
  <path style="opacity: 0.2;" d="M 410.085 36.103 C 399.468 36.509 387.833 37.542 375.227 39.613 C 351.183 43.564 314.639 52.736 280.659 79.996 C 245.255 108.4 225.979 149.706 220.498 196.415 C 192.39 201.579 164.051 213.524 145.651 234.356 C 122.183 260.924 112.954 292.14 112.954 321.836 C 112.954 351.53 122.183 382.695 145.651 409.262 C 149.322 413.421 155.251 415.482 159.636 419.131 C 147.605 445.679 139.004 473.863 138.961 504.271 L 138.961 504.424 C 138.961 618.001 231.873 712.947 344.543 712.947 C 457.212 712.947 550.124 618.001 550.124 504.422 L 550.124 504.321 C 550.096 473.894 541.535 445.65 529.498 419.081 C 533.865 415.446 539.775 413.405 543.434 409.262 C 566.9 382.695 576.129 351.53 576.129 321.836 C 576.129 295.76 567.192 268.972 549.569 244.732 C 562.583 226.746 572.079 207.533 575.074 187.515 C 579.492 157.971 574.937 125.486 555.303 95.46 C 535.932 65.827 499.173 43.925 464.864 39.206 C 462.371 38.802 440.08 34.966 410.085 36.103 Z"/>
  <path style="fill: rgb(194, 53, 42);" d="M 410.085 10.064 C 399.468 10.467 387.833 11.504 375.227 13.574 C 351.183 17.524 314.639 26.697 280.659 53.957 C 245.255 82.359 225.979 123.668 220.498 170.375 C 192.39 175.541 164.051 187.482 145.651 208.315 C 122.183 234.883 112.954 266.101 112.954 295.794 C 112.954 325.489 122.183 356.655 145.651 383.223 C 149.322 387.383 155.251 389.443 159.636 393.089 C 147.605 419.638 139.004 447.824 138.961 478.229 L 138.961 478.383 C 138.961 591.959 231.873 686.907 344.543 686.907 C 457.212 686.907 550.124 591.959 550.124 478.383 L 550.124 478.279 C 550.096 447.853 541.535 419.609 529.498 393.039 C 533.865 389.404 539.775 387.363 543.434 383.223 C 566.9 356.655 576.129 325.489 576.129 295.794 C 576.129 269.721 567.192 242.932 549.569 218.691 C 562.583 200.704 572.079 181.492 575.074 161.473 C 579.492 131.929 574.937 99.444 555.303 69.418 C 535.932 39.789 499.173 17.886 464.864 13.168 C 462.371 12.76 440.08 8.924 410.085 10.064 Z"/>
  <path style="opacity: 0.2;" d="M 414.022 140.211 C 407.023 140.476 399.482 141.135 391.78 142.402 C 376.377 144.93 359.553 149.733 344.743 161.612 C 329.935 173.488 318.948 194.165 318.948 217.457 L 318.948 295.724 L 242.005 295.724 C 222.26 295.439 209.619 317.002 219.249 334.536 C 223.847 342.905 232.582 348.036 242.005 347.9 L 318.948 347.9 L 318.948 403.542 C 273.706 415.424 242.073 456.901 242.005 504.431 C 242.005 562.065 287.934 608.786 344.594 608.786 C 401.252 608.786 447.184 562.065 447.184 504.431 C 447.139 456.884 415.502 415.38 370.241 403.491 L 370.241 347.9 L 447.184 347.9 C 466.925 348.184 479.568 326.619 469.938 309.086 C 465.341 300.718 456.605 295.588 447.184 295.724 L 370.241 295.724 L 370.241 217.457 C 370.241 208.033 372.077 206.129 376.504 202.578 C 380.929 199.029 389.749 195.549 399.997 193.866 C 420.485 190.498 443.325 193.661 443.325 193.661 C 462.75 197.27 478.731 178.137 472.089 159.221 C 468.825 149.92 460.677 143.291 451.041 142.096 C 451.041 142.096 435.019 139.414 414.022 140.211 Z M 344.594 478.343 C 358.758 478.343 370.241 490.023 370.241 504.431 C 370.241 518.841 358.758 530.521 344.594 530.521 C 330.428 530.521 318.948 518.841 318.948 504.431 C 318.948 490.023 330.428 478.343 344.594 478.343 Z"/>
  <path style="fill: rgb(255, 255, 255);" d="M 414.022 114.169 C 407.023 114.435 399.482 115.096 391.78 116.361 C 376.377 118.892 359.553 123.693 344.743 135.57 C 329.935 147.449 318.948 168.123 318.948 191.416 L 318.948 269.682 L 242.005 269.682 C 222.26 269.399 209.619 290.963 219.249 308.496 C 223.847 316.863 232.582 321.994 242.005 321.859 L 318.948 321.859 L 318.948 377.502 C 273.706 389.384 242.073 430.863 242.005 478.392 C 242.005 536.025 287.934 582.746 344.594 582.746 C 401.252 582.746 447.184 536.025 447.184 478.392 C 447.139 430.844 415.502 389.338 370.241 377.452 L 370.241 321.859 L 447.184 321.859 C 466.925 322.143 479.568 300.58 469.938 283.046 C 465.341 274.678 456.605 269.546 447.184 269.682 L 370.241 269.682 L 370.241 191.416 C 370.241 181.993 372.077 180.087 376.504 176.539 C 380.929 172.987 389.749 169.508 399.997 167.825 C 420.485 164.459 443.325 167.62 443.325 167.62 C 462.75 171.228 478.731 152.097 472.089 133.182 C 468.825 123.878 460.677 117.25 451.041 116.055 C 451.041 116.055 435.019 113.372 414.022 114.169 Z M 344.594 452.302 C 358.758 452.302 370.241 463.984 370.241 478.392 C 370.241 492.799 358.758 504.479 344.594 504.479 C 330.428 504.479 318.948 492.799 318.948 478.392 C 318.948 463.984 330.428 452.302 344.594 452.302 Z"/>
  <path style="opacity: 0.2; fill: rgb(255, 255, 255);" d="M 430.972 10.014 C 424.627 9.806 417.593 9.78 410.093 10.064 C 399.476 10.467 387.834 11.504 375.228 13.574 C 351.185 17.524 314.623 26.697 280.643 53.957 C 245.237 82.359 226 123.668 220.52 170.375 C 192.41 175.541 164.058 187.482 145.656 208.315 C 122.189 234.883 112.954 266.101 112.954 295.794 C 112.954 300.106 113.606 304.462 114.012 308.815 C 116.388 283.155 125.59 257.076 145.656 234.356 C 164.058 213.524 192.41 201.579 220.52 196.415 C 226 149.706 245.237 108.4 280.643 79.996 C 314.623 52.736 351.185 43.564 375.228 39.613 C 387.834 37.542 399.476 36.509 410.093 36.103 C 440.088 34.966 462.39 38.802 464.883 39.206 C 499.193 43.925 535.918 65.827 555.291 95.46 C 567.821 114.621 573.734 134.745 575.568 154.507 C 578.338 126.846 573.415 97.131 555.291 69.418 C 535.918 39.789 499.193 17.886 464.883 13.168 C 463.014 12.861 450.012 10.629 430.972 10.014 Z M 557.908 232.067 C 555.319 236.34 552.557 240.584 549.556 244.732 C 564.326 265.048 572.645 287.145 575.064 309.119 C 575.487 304.665 576.121 300.206 576.121 295.794 C 576.121 274.403 569.798 252.616 557.908 232.067 Z M 537.834 413.484 C 534.989 415.253 532.027 416.959 529.483 419.081 C 540.029 442.365 547.551 467.032 549.354 493.232 C 549.71 488.303 550.108 483.389 550.108 478.383 L 550.108 478.279 C 550.088 455.532 545.279 434.005 537.834 413.484 Z M 151.293 413.536 C 143.836 434.028 138.999 455.497 138.965 478.229 L 138.965 478.383 C 138.965 483.455 139.355 488.441 139.72 493.436 C 141.514 467.176 149.07 442.466 159.643 419.131 C 157.089 417.005 154.144 415.313 151.293 413.536 Z"/>
</svg>